<svg id="Layer_1" height="512" viewBox="0 0 512 512" width="512" xmlns="http://www.w3.org/2000/svg" xmlns:xlink="http://www.w3.org/1999/xlink" data-name="Layer 1"><linearGradient id="linear-gradient" gradientUnits="userSpaceOnUse" x1="149.001" x2="149.001" y1="490.121" y2="87.132"><stop offset=".322" stop-color="#a163f5"/><stop offset=".466" stop-color="#b074ee"/><stop offset=".752" stop-color="#d8a1dd"/><stop offset=".898" stop-color="#efbad3"/></linearGradient><linearGradient id="linear-gradient-2" x1="255.293" x2="255.293" xlink:href="#linear-gradient" y1="490.121" y2="87.132"/><linearGradient id="linear-gradient-3" x1="207.878" x2="207.878" xlink:href="#linear-gradient" y1="490.121" y2="87.132"/><linearGradient id="linear-gradient-4" x1="302.586" x2="302.586" xlink:href="#linear-gradient" y1="490.121" y2="87.132"/><linearGradient id="linear-gradient-5" x1="143" x2="143" xlink:href="#linear-gradient" y1="490.121" y2="87.132"/><linearGradient id="linear-gradient-7" x1="256" x2="256" xlink:href="#linear-gradient" y1="490.121" y2="87.132"/><path d="" fill="url(#linear-gradient)"/><path d="m311.987 188h-113.51a49.5 49.5 0 0 0 0 99h113.51a49.5 49.5 0 1 0 0-99zm0 87h-113.51a37.5 37.5 0 1 1 0-75h113.51a37.5 37.5 0 1 1 0 75z" fill="url(#linear-gradient-2)"/><path d="m207.878 216.9a20.637 20.637 0 1 0 20.637 20.637 20.661 20.661 0 0 0 -20.637-20.637zm0 29.273a8.637 8.637 0 1 1 8.637-8.636 8.647 8.647 0 0 1 -8.637 8.636z" fill="url(#linear-gradient-3)"/><path d="m302.586 216.9a20.637 20.637 0 1 0 20.636 20.637 20.661 20.661 0 0 0 -20.636-20.637zm0 29.273a8.637 8.637 0 1 1 8.636-8.636 8.646 8.646 0 0 1 -8.636 8.636z" fill="url(#linear-gradient-4)"/><path d="m143 413.612a6 6 0 0 0 -6 6v5.081a6 6 0 0 0 12 0v-5.081a6 6 0 0 0 -6-6z" fill="url(#linear-gradient-5)"/><path d="m143 438.536a6 6 0 0 0 -6 6v30.388a6 6 0 0 0 12 0v-30.388a6 6 0 0 0 -6-6z" fill="url(#linear-gradient-5)"/><path d="m421.791 176h-2.371a19.619 19.619 0 0 0 -9.42-9.73v-1.22c0-85.495-69.414-155.05-154.909-155.05-85.384 0-154.8 69.362-154.975 154.7a17.224 17.224 0 0 0 -8.459 9.3h-1.448a61 61 0 1 0 0 122h1.448c2.434 7 8.848 11.094 16.115 11.094a17.323 17.323 0 0 0 15.928-10.534 85.4 85.4 0 0 0 74.87 44.44h7.43v22h-32.27c-34.63 0-62.73 28.64-62.73 63.274v69.726a5.932 5.932 0 0 0 5.919 6h276.626c3.313 0 6.455-2.687 6.455-6v-69.726c0-34.634-28.632-63.274-63.266-63.274h-31.734v-22h6.894a86.253 86.253 0 0 0 75.588-44.986 16.719 16.719 0 0 0 16.285 13c7.266 0 13.22-5.017 15.653-11.017h2.371a61 61 0 1 0 0-122zm-330.791 108h-.791a49 49 0 1 1 0-98h.791zm79-233.4c23-17.951 53.371-28.6 85.5-28.6a141.855 141.855 0 0 1 85.5 28.6v8.968a25.992 25.992 0 0 1 -31.082 25.454 277.4 277.4 0 0 0 -109.355 0 25.354 25.354 0 0 1 -21.3-5.379 25.64 25.64 0 0 1 -9.263-20.075zm-57 239.56a5 5 0 1 1 -10 0v-110.132a5 5 0 1 1 10 0zm187 199.84h-90v-17.954a45 45 0 1 1 90 0zm36.734-115c28.017 0 51.266 23.257 51.266 51.274v63.726h-76v-17.954a57 57 0 1 0 -114 0v17.954h-75v-63.726c0-28.017 22.713-51.274 50.73-51.274zm-118.734-12v-22h75v22zm168-108a74 74 0 0 1 -74 74h-113a74 74 0 0 1 -74-74v-35a74 74 0 0 1 74-74h113a74 74 0 0 1 74 74zm12-89.3c-5.976 1.891-9.756 6.845-10.736 12.953a86.254 86.254 0 0 0 -75.37-44.653h-113.324a85.373 85.373 0 0 0 -73.907 42.778 17.375 17.375 0 0 0 -12.248-13.1 142.57 142.57 0 0 1 45.232-103.02 37.819 37.819 0 0 0 45.277 36.131 265.427 265.427 0 0 1 104.636 0 37.734 37.734 0 0 0 45.226-36.131 142.547 142.547 0 0 1 45.214 104.392zm11 126.312a5 5 0 1 1 -10 0v-110.138a5 5 0 1 1 10 0zm12.791-6.012h-.791v-98h.791a49 49 0 1 1 0 98z" fill="url(#linear-gradient-7)"/></svg>