<?xml version="1.0" encoding="iso-8859-1"?>
<!-- Generator: Adobe Illustrator 19.0.0, SVG Export Plug-In . SVG Version: 6.00 Build 0)  -->
<svg version="1.1" id="Layer_1" xmlns="http://www.w3.org/2000/svg" xmlns:xlink="http://www.w3.org/1999/xlink" x="0px" y="0px"
	 viewBox="0 0 512 512" style="enable-background:new 0 0 512 512;" xml:space="preserve">
<g>
	<g>
		<path d="M469.779,0H153.386c-4.428,0-8.017,3.589-8.017,8.017c0,4.427,3.588,8.017,8.017,8.017h316.392
			c14.441,0,26.188,11.748,26.188,26.188v427.557c0,14.44-11.747,26.188-26.188,26.188H42.221
			c-14.441,0-26.188-11.748-26.188-26.188V42.221c0-14.44,11.747-26.188,26.188-26.188h76.96c4.428,0,8.017-3.589,8.017-8.017
			c0-4.427-3.588-8.017-8.017-8.017h-76.96C18.941,0,0,18.941,0,42.221v427.557C0,493.059,18.941,512,42.221,512h427.557
			C493.059,512,512,493.059,512,469.779V42.221C512,18.941,493.059,0,469.779,0z"/>
	</g>
</g>
<g>
	<g>
		<path d="M254.458,209.351l-42.756-76.96c-1.414-2.545-4.097-4.124-7.009-4.124h-76.96c-5.992,0-9.927,6.656-7.009,11.91
			l40.626,73.127l-57.779,107.304c-2.828,5.251,1.113,11.818,7.059,11.818h76.96c2.949,0,5.661-1.619,7.059-4.216l59.858-111.165
			C255.803,214.64,255.784,211.74,254.458,209.351z M182.803,316.393h-58.751l53.495-99.347c1.296-2.405,1.276-5.305-0.05-7.694
			l-36.14-65.051h58.619l38.335,69.003L182.803,316.393z"/>
	</g>
</g>
<g>
	<g>
		<path d="M444.125,51.307h-76.96c-2.912,0-5.594,1.579-7.009,4.124L231.889,286.312c-1.369,2.465-1.343,5.468,0.071,7.91
			l94.063,162.472c1.433,2.476,4.076,4,6.937,4h76.96c5.917,0,9.856-6.503,7.094-11.75l-83.561-158.766l73.449-141.652
			c2.037-3.93,0.505-8.769-3.427-10.807c-3.929-2.037-8.767-0.505-10.806,3.427l-75.377,145.37
			c-1.208,2.329-1.199,5.102,0.022,7.423l79.328,150.721h-59.06l-89.469-154.536L371.882,67.34h59.056l-24.967,48.152
			c-2.038,3.93-0.505,8.768,3.427,10.807c3.931,2.038,8.768,0.505,10.807-3.427l31.037-59.858
			C453.961,57.768,450.022,51.307,444.125,51.307z"/>
	</g>
</g>
<g>
</g>
<g>
</g>
<g>
</g>
<g>
</g>
<g>
</g>
<g>
</g>
<g>
</g>
<g>
</g>
<g>
</g>
<g>
</g>
<g>
</g>
<g>
</g>
<g>
</g>
<g>
</g>
<g>
</g>
</svg>
